<svg width="24" height="24" viewBox="0 0 24 24" fill="none" xmlns="http://www.w3.org/2000/svg">
<path d="M8.51416 2.92981C6.02916 2.92981 4.01416 4.94451 4.01416 7.42981C4.01416 9.91511 6.02916 11.9298 8.51416 11.9298C10.9992 11.9298 13.0142 9.91511 13.0142 7.42981C13.0142 4.94451 10.9992 2.92981 8.51416 2.92981ZM8.51416 4.92981C9.89516 4.92981 11.0142 6.04911 11.0142 7.42981C11.0142 8.81051 9.89516 9.92971 8.51416 9.92981C7.13316 9.92981 6.01416 8.81051 6.01416 7.42981C6.01416 6.04911 7.13316 4.92991 8.51416 4.92981ZM19.0142 8.92981C18.4622 8.92981 18.0142 9.37751 18.0142 9.92981V10.9298H17.0142C16.4622 10.9298 16.0142 11.3775 16.0142 11.9298C16.0142 12.4821 16.4622 12.9298 17.0142 12.9298H18.0142V13.9298C18.0142 14.4821 18.4622 14.9298 19.0142 14.9298C19.5662 14.9298 20.0142 14.4821 20.0142 13.9298V12.9298H21.0142C21.5662 12.9298 22.0142 12.4821 22.0142 11.9298C22.0142 11.3775 21.5662 10.9298 21.0142 10.9298H20.0142V9.92981C20.0142 9.37751 19.5662 8.92981 19.0142 8.92981ZM5.07616 13.2736C3.24216 14.0304 2.01416 15.8859 2.01416 17.9298V19.9298C2.01416 20.4821 2.46216 20.9298 3.01416 20.9298H14.0142C14.5662 20.9298 15.0142 20.4821 15.0142 19.9298V17.9298C15.0142 15.934 13.7792 14.1235 11.9522 13.336C11.6942 13.2252 11.3952 13.2218 11.1392 13.336C10.2542 13.7326 9.39216 13.9296 8.51416 13.9298C7.63916 13.9298 6.77415 13.7218 5.85815 13.3048C5.60615 13.1902 5.33216 13.1683 5.07616 13.2736ZM5.45216 15.3048C6.39616 15.6633 7.54516 15.93 8.51416 15.9298C9.47516 15.9298 10.5572 15.7094 11.4832 15.3673C12.3852 15.8821 13.0142 16.8292 13.0142 17.9298V18.9298H4.01416V17.9298C4.01416 16.7651 4.66016 15.7683 5.45216 15.3048Z" fill="black"/>
</svg>
