<svg width="24" height="24" viewBox="0 0 24 24" fill="none" xmlns="http://www.w3.org/2000/svg">
<path d="M5.99902 2.01416C3.78992 2.01416 1.99902 3.80517 1.99902 6.01417V16.0142C1.99902 18.2232 3.78992 20.0142 5.99902 20.0142H17.999C20.2081 20.0142 21.999 18.2232 21.999 16.0142V8.01418C21.999 5.80517 20.2082 4.01417 17.999 4.01417H9.40523C8.63423 2.88416 7.38213 2.01416 5.99902 2.01416ZM5.99902 4.01417C6.84462 4.01417 7.80013 4.64817 8.09283 5.38917C8.24363 5.77117 8.58863 6.01417 8.99903 6.01417H17.999C19.1036 6.01417 19.999 6.90918 19.999 8.01418V16.0142C19.999 17.1192 19.1036 18.0142 17.999 18.0142H5.99902C4.89442 18.0142 3.99902 17.1192 3.99902 16.0142V6.01417C3.99902 4.90917 4.89442 4.01417 5.99902 4.01417ZM5.99902 5.01417C5.44672 5.01417 4.99902 5.46217 4.99902 6.01417C4.99902 6.56618 5.44672 7.01418 5.99902 7.01418C6.55132 7.01418 6.99903 6.56618 6.99903 6.01417C6.99903 5.46217 6.55132 5.01417 5.99902 5.01417ZM11.999 7.01418C9.23763 7.01418 6.99903 9.25318 6.99903 12.0142C6.99903 14.7752 9.23763 17.0142 11.999 17.0142C14.7604 17.0142 16.999 14.7752 16.999 12.0142C16.999 9.25318 14.7604 7.01418 11.999 7.01418ZM11.999 9.01418C13.6559 9.01418 14.999 10.3572 14.999 12.0142C14.999 13.6712 13.6559 15.0142 11.999 15.0142C10.3421 15.0142 8.99903 13.6712 8.99903 12.0142C8.99903 10.3572 10.3421 9.01418 11.999 9.01418Z" fill="black"/>
</svg>
