<svg width="24" height="24" viewBox="0 0 24 24" fill="none" xmlns="http://www.w3.org/2000/svg">
<path d="M5.99902 5.00488C3.79002 5.00488 1.99902 6.79588 1.99902 9.00488V15.0049C1.99902 17.2139 3.79002 19.0049 5.99902 19.0049H12.999C15.208 19.0049 16.999 17.2139 16.999 15.0049V14.4429L20.28 17.7239C20.91 18.3539 21.999 17.8959 21.999 17.0049V7.00488C21.999 6.55988 21.722 6.21189 21.374 6.06689C21.026 5.92289 20.595 5.97089 20.28 6.28589C19.87 6.69589 18.334 8.23189 16.999 9.56689V9.00488C16.999 6.79588 15.208 5.00488 12.999 5.00488H5.99902ZM5.99902 7.00488H12.999C14.104 7.00488 14.999 7.89988 14.999 9.00488V12.0049V15.0049C14.999 16.1099 14.104 17.0049 12.999 17.0049H5.99902C4.89402 17.0049 3.99902 16.1099 3.99902 15.0049V9.00488C3.99902 7.89988 4.89402 7.00488 5.99902 7.00488ZM19.999 9.44287V14.5669L17.437 12.0049C18.151 11.2899 18.956 10.4849 19.999 9.44287Z" fill="black"/>
</svg>
