<svg width="120" height="120" viewBox="0 0 120 120" fill="none" xmlns="http://www.w3.org/2000/svg">
<path d="M34.9536 14.9918C23.9081 14.9918 14.9536 23.9468 14.9536 34.9918V84.9917C14.9536 96.0367 23.9081 104.992 34.9536 104.992H84.9536C95.9991 104.992 104.954 96.0367 104.954 84.9917V34.9918C104.954 23.9468 95.9991 14.9918 84.9536 14.9918H34.9536ZM79.9536 44.0518C81.2331 44.0568 82.5711 44.4817 83.5476 45.4617C85.5001 47.4117 85.5001 50.5368 83.5476 52.4918L64.7976 71.2417C59.0461 76.9917 50.2466 76.1317 45.7346 69.3667L40.7346 61.8667C39.2031 59.5717 39.8436 56.3667 42.1411 54.8367C44.4391 53.3017 47.6406 53.9418 49.1726 56.2418L54.1726 63.7417C55.1836 65.2567 56.4771 65.3418 57.7661 64.0518L76.3596 45.4617C77.3361 44.4867 78.6741 44.0518 79.9536 44.0518Z" fill="#2A70FE"/>
</svg>
