<svg width="120" height="120" viewBox="0 0 120 120" fill="none" xmlns="http://www.w3.org/2000/svg">
<path d="M34.9536 14.9918C23.9086 14.9918 14.9536 23.9468 14.9536 34.9918V84.9918C14.9536 96.0368 23.9086 104.992 34.9536 104.992H84.9536C95.9986 104.992 104.954 96.0368 104.954 84.9918V34.9918C104.954 23.9468 95.9986 14.9918 84.9536 14.9918H34.9536ZM59.9536 34.9918C62.7136 34.9918 64.9536 37.2318 64.9536 39.9918V64.9918C64.9536 67.7518 62.7136 69.9918 59.9536 69.9918C57.1936 69.9918 54.9536 67.7518 54.9536 64.9918V39.9918C54.9536 37.2318 57.1936 34.9918 59.9536 34.9918ZM59.9536 74.9918C62.7136 74.9918 64.9536 77.2318 64.9536 79.9918C64.9536 82.7518 62.7136 84.9918 59.9536 84.9918C57.1936 84.9918 54.9536 82.7518 54.9536 79.9918C54.9536 77.2318 57.1936 74.9918 59.9536 74.9918Z" fill="#DB1514"/>
</svg>
