<svg width="75" height="75" viewBox="0 0 75 75" fill="none" xmlns="http://www.w3.org/2000/svg">
<path d="M28.3125 36.9062C26.1562 36.9062 24.4062 38.6562 24.4062 40.8125C24.4062 42.9687 26.1562 44.7187 28.3125 44.7187C30.4687 44.7187 32.2187 42.9687 32.2187 40.8125C32.2187 38.6562 30.4687 36.9062 28.3125 36.9062ZM47.0625 36.9062C44.9062 36.9062 43.1562 38.6562 43.1562 40.8125C43.1562 42.9687 44.9062 44.7187 47.0625 44.7187C49.2187 44.7187 50.9687 42.9687 50.9687 40.8125C50.9687 38.6562 49.2187 36.9062 47.0625 36.9062ZM37.6875 6.4375C20.4375 6.4375 6.4375 20.4375 6.4375 37.6875C6.4375 54.9375 20.4375 68.9375 37.6875 68.9375C54.9375 68.9375 68.9375 54.9375 68.9375 37.6875C68.9375 20.4375 54.9375 6.4375 37.6875 6.4375ZM37.6875 62.6875C23.9063 62.6875 12.6875 51.4687 12.6875 37.6875C12.6875 36.7812 12.75 35.875 12.8437 35C20.2187 31.7187 26.0625 25.6875 29.125 18.2187C34.7812 26.2187 44.0937 31.4375 54.625 31.4375C57.0625 31.4375 59.4062 31.1562 61.6562 30.625C62.3125 32.8437 62.6875 35.2187 62.6875 37.6875C62.6875 51.4687 51.4687 62.6875 37.6875 62.6875Z" fill="black"/>
<path d="M3 16.5937V4C3 3.4477 3.4477 3 4 3H15.1875" stroke="black" stroke-width="5" stroke-linecap="round"/>
<path d="M3 58.3125V70.9065C3 71.4585 3.4477 71.9065 4 71.9065H15.1875" stroke="black" stroke-width="5" stroke-linecap="round"/>
<path d="M72.3755 58.3125V70.9065C72.3755 71.4585 71.9275 71.9065 71.3745 71.9065H60.1875" stroke="black" stroke-width="5" stroke-linecap="round"/>
<path d="M72.3755 16.5937V4C72.3755 3.4477 71.9275 3 71.3745 3H60.1875" stroke="black" stroke-width="5" stroke-linecap="round"/>
</svg>
