<svg width="24" height="24" viewBox="0 0 24 24" fill="none" xmlns="http://www.w3.org/2000/svg">
<path d="M11.999 2.01416C8.63402 2.01416 5.69303 4.19216 4.56403 7.04916C3.12803 7.22216 1.99902 8.52915 1.99902 10.0141V14.0141C1.99902 15.6711 3.34202 17.0141 4.99902 17.0141C6.65602 17.0141 7.99902 15.6711 7.99902 14.0141V10.0141C7.99902 8.95315 7.39503 7.97614 6.56503 7.44314C7.46803 5.48314 9.57502 4.01416 11.999 4.01416C14.429 4.01416 16.481 5.42216 17.418 7.45016C16.57 7.99116 15.999 8.96815 15.999 10.0141V14.0141C15.999 14.6501 16.246 15.3551 16.617 15.8451C15.99 16.5821 15.33 17.0851 14.558 17.4551C13.996 16.5561 13.045 16.0141 11.999 16.0141C10.342 16.0141 8.99902 17.3571 8.99902 19.0141C8.99902 20.6711 10.342 22.0141 11.999 22.0141C13.509 22.0141 14.75 20.8941 14.96 19.4421C16.131 19.0021 17.41 18.1291 18.308 16.9261C18.547 16.9861 18.742 17.0141 18.999 17.0141C20.656 17.0141 21.999 15.6711 21.999 14.0141V10.0141C21.999 8.51415 20.867 7.26316 19.429 7.04116C18.249 4.09616 15.345 2.01416 11.999 2.01416ZM4.99902 9.01415C5.55102 9.01415 5.99902 9.46215 5.99902 10.0141V14.0141C5.99902 14.5661 5.55102 15.0141 4.99902 15.0141C4.44702 15.0141 3.99902 14.5661 3.99902 14.0141V10.0141C3.99902 9.46215 4.44702 9.01415 4.99902 9.01415ZM18.999 9.01415C19.551 9.01415 19.999 9.46215 19.999 10.0141V14.0141C19.999 14.5661 19.551 15.0141 18.999 15.0141C18.447 15.0141 17.999 14.5661 17.999 14.0141V10.0141C17.999 9.46215 18.447 9.01415 18.999 9.01415ZM11.999 18.0141C12.551 18.0141 12.999 18.4621 12.999 19.0141C12.999 19.5661 12.551 20.0141 11.999 20.0141C11.447 20.0141 10.999 19.5661 10.999 19.0141C10.999 18.4621 11.447 18.0141 11.999 18.0141Z" fill="black"/>
</svg>
