<svg width="24" height="24" viewBox="0 0 24 24" fill="none" xmlns="http://www.w3.org/2000/svg">
<path d="M7.99072 1.9989C7.43842 1.9989 6.99072 2.4469 6.99072 2.9989C4.78162 2.9989 2.99072 4.7899 2.99072 6.9989V16.9989C2.99072 19.2079 4.78162 20.9989 6.99072 20.9989H16.9907C19.1998 20.9989 20.9908 19.2079 20.9907 16.9989V6.9989C20.9907 4.7899 19.1998 2.9989 16.9907 2.9989C16.9907 2.4469 16.543 1.9989 15.9907 1.9989C15.4384 1.9989 14.9907 2.4469 14.9907 2.9989H11.9907H8.99072C8.99072 2.4469 8.54302 1.9989 7.99072 1.9989ZM6.99072 4.9989C6.99072 5.3909 6.99072 5.8249 6.99072 5.9989C6.99072 7.6879 8.48482 8.9989 10.2719 8.9989H13.7095C15.4966 8.9989 16.9906 7.6879 16.9907 5.9989C16.9907 5.8249 16.9907 5.4169 16.9907 4.9989C18.0953 4.9989 18.9908 5.8939 18.9907 6.9989V16.9989C18.9907 18.1039 18.0953 18.9989 16.9907 18.9989H6.99072C5.88612 18.9989 4.99072 18.1039 4.99072 16.9989V6.9989C4.99072 5.8939 5.88612 4.9989 6.99072 4.9989ZM8.99072 4.9989H11.9907H14.9907C14.9907 5.4169 14.9907 5.8249 14.9907 5.9989C14.9907 6.5189 14.4471 6.9989 13.7095 6.9989H10.2719C9.53442 6.9989 8.99072 6.5189 8.99072 5.9989C8.99072 5.8249 8.99072 5.3909 8.99072 4.9989ZM14.9907 10.9989C14.7348 10.9989 14.4672 11.0849 14.2719 11.2799L10.9907 14.5609L9.70952 13.2799C9.31892 12.8899 8.66252 12.8899 8.27192 13.2799C7.88142 13.6709 7.88142 14.3269 8.27192 14.7179L10.2719 16.7179C10.6625 17.1079 11.3189 17.1079 11.7095 16.7179L15.7095 12.7179C16.1 12.3269 16.1 11.6709 15.7095 11.2799C15.5142 11.0849 15.2466 10.9989 14.9907 10.9989Z" fill="black"/>
</svg>
