<svg width="24" height="24" viewBox="0 0 24 24" fill="none" xmlns="http://www.w3.org/2000/svg">
<path d="M11.9229 2.19751C10.9059 2.18551 9.91045 2.52152 9.20385 3.22852L2.26636 10.3215C1.96796 10.6265 1.88806 11.0655 2.07886 11.4475L2.98505 13.2595L2.95386 18.9785C2.95376 20.1095 3.86005 21.0095 4.98505 21.0095H9.17255C10.1699 21.0095 10.9849 20.1945 10.9849 19.1975V14.8845C10.9849 14.4005 11.3759 14.0095 11.8599 14.0095H12.1099C12.5939 14.0095 12.9849 14.4005 12.9849 14.8845V19.1975C12.9849 20.1945 13.7999 21.0095 14.7979 21.0095H18.9848C20.1098 21.0095 21.0158 20.1035 21.0158 18.9785L20.9848 13.2595L21.8908 11.4475C22.0838 11.0625 22.0078 10.5955 21.7038 10.2905C21.4438 10.0305 15.3289 3.91553 14.7039 3.29053C13.9789 2.56553 12.9389 2.20851 11.9229 2.19751ZM11.9229 4.19751C12.4259 4.20751 12.9278 4.39052 13.2658 4.72852C13.8468 5.30852 18.8018 10.2635 19.7658 11.2285L19.0788 12.5715C19.0088 12.7125 18.9838 12.8525 18.9848 13.0095L19.0158 18.9785C19.0158 18.9925 19.0058 19.0095 18.9848 19.0095H14.9849V14.8845C14.9849 13.2955 13.6989 12.0095 12.1099 12.0095H11.8599C10.2709 12.0095 8.98505 13.2955 8.98505 14.8845V19.0095H4.98505C4.96465 19.0095 4.95386 18.9985 4.95386 18.9785L4.98505 13.0095C4.98605 12.8525 4.96166 12.7125 4.89136 12.5715L4.20386 11.1975L10.6099 4.63453C10.9189 4.32553 11.4189 4.18651 11.9229 4.19751Z" fill="black"/>
</svg>
