<svg width="150" height="150" viewBox="0 0 150 150" fill="none" xmlns="http://www.w3.org/2000/svg">
<g clip-path="url(#clip0_21_17)">
<rect width="150" height="150" rx="75" fill="#EFEFFD"/>
<rect x="75" y="75" width="84" height="84" fill="#DFE7FC"/>
<rect x="-9" y="-9" width="84" height="84" fill="#DFE7FC"/>
<g clip-path="url(#clip1_21_17)">
<path d="M65.125 73.7187C62.9687 73.7187 61.2187 75.4687 61.2187 77.625C61.2187 79.7812 62.9687 81.5312 65.125 81.5312C67.2812 81.5312 69.0312 79.7812 69.0312 77.625C69.0312 75.4687 67.2812 73.7187 65.125 73.7187ZM83.875 73.7187C81.7187 73.7187 79.9687 75.4687 79.9687 77.625C79.9687 79.7812 81.7187 81.5312 83.875 81.5312C86.0312 81.5312 87.7812 79.7812 87.7812 77.625C87.7812 75.4687 86.0312 73.7187 83.875 73.7187ZM74.5 43.25C57.25 43.25 43.25 57.25 43.25 74.5C43.25 91.75 57.25 105.75 74.5 105.75C91.75 105.75 105.75 91.75 105.75 74.5C105.75 57.25 91.75 43.25 74.5 43.25ZM74.5 99.5C60.7188 99.5 49.5 88.2812 49.5 74.5C49.5 73.5937 49.5625 72.6875 49.6562 71.8125C57.0312 68.5312 62.875 62.5 65.9375 55.0312C71.5937 63.0312 80.9062 68.25 91.4375 68.25C93.875 68.25 96.2187 67.9687 98.4687 67.4375C99.125 69.6562 99.5 72.0312 99.5 74.5C99.5 88.2812 88.2812 99.5 74.5 99.5Z" fill="#2A70FE"/>
<path d="M39.8125 53.4062V40.8125C39.8125 40.2602 40.2602 39.8125 40.8125 39.8125H52" stroke="#2A70FE" stroke-width="5" stroke-linecap="round"/>
<path d="M39.8125 95.125V107.719C39.8125 108.271 40.2602 108.719 40.8125 108.719H52" stroke="#2A70FE" stroke-width="5" stroke-linecap="round"/>
<path d="M109.188 95.125V107.719C109.188 108.271 108.74 108.719 108.187 108.719H97" stroke="#2A70FE" stroke-width="5" stroke-linecap="round"/>
<path d="M109.188 53.4062V40.8125C109.188 40.2602 108.74 39.8125 108.187 39.8125H97" stroke="#2A70FE" stroke-width="5" stroke-linecap="round"/>
</g>
</g>
<defs>
<clipPath id="clip0_21_17">
<rect width="150" height="150" rx="75" fill="white"/>
</clipPath>
<clipPath id="clip1_21_17">
<rect width="75" height="75" fill="white" transform="translate(37 37)"/>
</clipPath>
</defs>
</svg>
